PathFileType	4	(X/Y/Z)	C:/Users/opensim2020/Desktop/walking_exp_matlab/subject03_walking15_straight_02.trc	
DataRate	CameraRate	NumFrames	NumMarkers	Units	OrigDataRate	OrigDataStartFrame	OrigNumFrames	
100.00	100.00	4	47	mm	100.00	1085	149	
Frame#	Time	LFHD			RFHD			LBHD			RBHD			C7			T10			CLAV			STRN			RBAK			LSHO			LUPA			LELB			LFRM			LWRA			LWRB			LFIN			RSHO			RUPA			RELB			RFRM			RWRA			RWRB			RFIN			LASI			RASI			LPSI			RPSI			LTHI			LKNE			LTIB			LANK			LHEE			LTOE			RTHI			RKNE			RTIB			RANK			RHEE			RTOE			*39			*40			*41			*42			*43			*44			*45			*46			
		X1	Y1	Z1	X2	Y2	Z2	X3	Y3	Z3	X4	Y4	Z4	X5	Y5	Z5	X6	Y6	Z6	X7	Y7	Z7	X8	Y8	Z8	X9	Y9	Z9	X10	Y10	Z10	X11	Y11	Z11	X12	Y12	Z12	X13	Y13	Z13	X14	Y14	Z14	X15	Y15	Z15	X16	Y16	Z16	X17	Y17	Z17	X18	Y18	Z18	X19	Y19	Z19	X20	Y20	Z20	X21	Y21	Z21	X22	Y22	Z22	X23	Y23	Z23	X24	Y24	Z24	X25	Y25	Z25	X26	Y26	Z26	X27	Y27	Z27	X28	Y28	Z28	X29	Y29	Z29	X30	Y30	Z30	X31	Y31	Z31	X32	Y32	Z32	X33	Y33	Z33	X34	Y34	Z34	X35	Y35	Z35	X36	Y36	Z36	X37	Y37	Z37	X38	Y38	Z38	X39	Y39	Z39	X40	Y40	Z40	X41	Y41	Z41	X42	Y42	Z42	X43	Y43	Z43	X44	Y44	Z44	X45	Y45	Z45	X46	Y46	Z46	X47	Y47	Z47	

1	0.000	-928.69049	1016.96204	1605.84424	-1060.20972	1028.78918	1619.60571	-924.64087	1145.53870	1564.32715	-1054.38940	1152.24890	1577.07434	-990.99176	1182.11804	1407.11121	-990.63037	1221.25500	1096.61060	-999.41736	1058.74536	1330.93372	-992.96954	1017.13269	1164.58875	-1080.47534	1239.07422	1232.12378	-842.48090	1097.70239	1371.80017	-768.03455	1094.26404	1178.76758	-763.57141	1071.62097	1058.85730	-793.42688	994.27551	964.34283	-855.39343	924.81366	886.69263	-804.57697	938.13440	866.09198	-832.55414	876.29260	819.82556	-1155.23804	1116.56128	1353.35828	-1226.38562	1147.21802	1132.56409	-1239.66748	1150.92175	1019.60120	-1245.51221	1164.76587	883.15826	-1215.01929	1156.27026	781.01227	-1257.95618	1190.03552	785.84271	-1246.13416	1192.47192	708.90637	-881.54559	1062.13782	921.38354	-1116.17542	1054.78955	942.20386	-933.40179	1222.92810	947.83765	-1080.35327	1216.90723	967.57208	-843.46991	1132.39429	612.34857	-871.21082	1140.74731	433.34286	-877.21826	1300.29822	315.46201	-918.86188	1460.74866	186.90112	-952.40784	1503.43408	214.89659	-972.89392	1439.23059	46.09120	-1176.16162	1066.39490	651.14447	-1139.47668	1013.13226	480.27835	-1155.99268	1037.93176	287.10214	-1118.91162	1047.51001	68.96259	-1071.49023	1093.58154	34.68222	-1096.17163	906.53436	31.99637	-965.77362	1102.58374	1671.37085																					 
2	0.010	-929.91608	1003.48218	1607.43921	-1061.46521	1014.85095	1621.02100	-926.21985	1132.24646	1566.26233	-1056.23682	1138.61316	1578.89539	-993.00720	1168.70630	1408.54846	-992.97388	1207.17542	1097.97827	-1000.40155	1045.06958	1332.63623	-993.39844	1003.46960	1166.18213	-1083.30029	1224.57959	1233.46216	-843.61914	1085.63525	1373.48462	-769.22552	1083.39526	1180.12085	-764.29932	1062.00720	1059.76758	-792.91553	986.47949	963.07489	-853.58069	918.24768	883.04633	-802.57556	932.65564	863.47870	-829.87964	872.16754	814.44830	-1156.63770	1101.45007	1354.79651	-1228.84314	1130.14587	1133.98682	-1242.37561	1132.71094	1020.99768	-1247.91809	1143.91882	884.34991	-1216.96777	1133.64880	782.40308	-1260.15808	1167.16101	786.46301	-1248.15527	1167.91980	709.56909	-881.88153	1049.71497	922.51752	-1116.98096	1040.68848	942.82874	-934.97192	1209.76733	948.94366	-1082.06616	1202.76697	969.61389	-843.86182	1113.38892	612.69257	-870.97479	1113.81128	433.12753	-877.12231	1273.61890	317.58646	-920.21735	1437.35315	193.87335	-954.42493	1480.90808	220.39952	-971.54584	1413.26721	51.95090	-1176.94507	1058.13525	651.36407	-1140.82642	1008.25208	479.64221	-1156.79272	1035.84656	286.94644	-1118.96887	1047.60388	69.00646	-1071.54907	1093.69446	34.74684	-1096.15967	906.55908	31.90014	-968.24664	1087.74670	1674.57434																					 
3	0.020	-930.95099	990.09003	1608.95117	-1062.58643	1000.91150	1622.44958	-927.74573	1118.86768	1568.00244	-1057.70032	1124.72119	1580.55859	-994.95160	1155.15210	1410.14099	-995.17224	1193.24487	1099.29639	-1001.20782	1031.40198	1334.32410	-993.70795	989.85162	1167.74316	-1086.05591	1210.20020	1234.70654	-844.43707	1073.63843	1374.96838	-770.32318	1072.68640	1181.15027	-764.86456	1053.23193	1060.52112	-792.24811	978.69971	961.49316	-851.57300	911.82123	879.07294	-800.44141	927.24823	860.46973	-827.01715	868.51294	808.61407	-1157.91467	1086.30408	1356.07532	-1231.18860	1112.89038	1135.21753	-1245.16370	1114.13611	1022.05817	-1250.20911	1122.79041	885.33600	-1219.06982	1110.58533	783.95807	-1262.29248	1143.95129	787.00439	-1250.22229	1142.86780	710.32574	-882.12469	1037.34241	923.69659	-1118.08508	1026.34729	942.96204	-936.55078	1196.85168	949.91138	-1083.72888	1189.02502	971.55444	-844.31238	1094.30872	614.11133	-870.68591	1086.93726	434.29092	-878.15729	1247.20520	320.79898	-922.43188	1412.65381	199.74980	-957.68890	1457.34839	223.24330	-969.84052	1382.78418	56.38181	-1177.57532	1049.98853	651.53674	-1141.92773	1003.37744	479.07794	-1157.65100	1033.38843	286.87912	-1119.16943	1047.62500	69.02507	-1071.75586	1093.80530	34.82602	-1096.13928	906.60492	31.80479	-969.57959	1074.03333	1676.09851																					 
4	0.030	-931.84637	976.76630	1610.51440	-1063.62024	987.00049	1623.86584	-929.19397	1105.52222	1569.65894	-1059.23987	1110.93396	1582.14783	-996.74493	1141.43115	1411.83191	-997.28333	1179.53137	1100.68628	-1001.53687	1019.10059	1334.85754	-993.94629	976.33667	1169.16272	-1088.68396	1196.03687	1235.95129	-844.98676	1061.58093	1376.29822	-771.20148	1062.16968	1181.93530	-765.57172	1043.58691	1060.87488	-791.44604	971.03131	959.68304	-848.89697	905.69617	874.76074	-798.03888	922.31726	857.26044	-823.99768	865.40619	802.49414	-1159.11938	1071.07129	1357.17102	-1233.36780	1095.31763	1136.28552	-1247.74426	1095.40918	1023.14697	-1252.46106	1101.36938	886.31458	-1220.83447	1087.31384	785.33258	-1264.32141	1120.39038	787.46674	-1252.18323	1117.22888	711.01691	-882.48145	1024.78699	924.95142	-1118.80603	1012.60901	943.23413	-937.99097	1184.03491	950.81488	-1085.24292	1175.57129	973.31165	-844.82922	1074.63403	616.28760	-870.46649	1060.14758	436.80270	-879.42926	1220.55029	324.33432	-924.86212	1386.02649	203.19994	-960.93225	1431.67896	223.87950	-968.55164	1350.13940	59.45152	-1177.99487	1041.71216	651.96436	-1142.68445	998.34326	478.63269	-1158.29333	1030.51587	286.79428	-1119.48914	1047.73425	69.13764	-1071.99158	1093.93372	34.94613	-1096.10059	906.69110	31.73684	-970.84271	1060.42041	1677.65540																					 
